# xmcd
#
# Track frame offsets:
#	150
#	17883
#	35720
#	48481
#	67815
#	88979
#	102551
#	120915
#	140354
#	156944
#	174936
#
# Disc length: 2625
#
# Revision: 1
# Processed by: cddbd v1.5.1PL0 Copyright (c) Steve Scherf et al.
# Submitted via: CDex 1.50Beta7
# Normalized: r0:TRMNUM
#
DISCID=900a3f0b
DTITLE=Ben Waters and Rock Bottom - going nowhere fast
DYEAR=2001
DGENRE=Blues
TTITLE0=Junker's Blues
TTITLE1=Them new crossroads blues
TTITLE2=stoop down baby
TTITLE3=cake with wolla
TTITLE4=down home girl
TTITLE5=stop the boogie
TTITLE6=annie had a baby
TTITLE7=mess around
TTITLE8=maureen's so sweet
TTITLE9=hey now baby
TTITLE10=u lie 2 much
EXTD=YEAR: 2001
EXTT0=
EXTT1=
EXTT2=
EXTT3=
EXTT4=
EXTT5=
EXTT6=
EXTT7=
EXTT8=
EXTT9=
EXTT10=
PLAYORDER=
